<?xml version="1.0" standalone="no"?>
<!DOCTYPE svg PUBLIC "-//W3C//DTD SVG 20010904//EN"
 "http://www.w3.org/TR/2001/REC-SVG-20010904/DTD/svg10.dtd">
<svg version="1.0" xmlns="http://www.w3.org/2000/svg"
 width="736.000000pt" height="552.000000pt" viewBox="0 0 736.000000 552.000000"
 preserveAspectRatio="xMidYMid meet">

<g transform="translate(0.000000,552.000000) scale(0.100000,-0.100000)"
fill="#000000" stroke="none">
<path d="M0 2760 l0 -2760 3680 0 3680 0 0 2760 0 2760 -3680 0 -3680 0 0
-2760z m3199 1167 c94 -145 432 -647 435 -647 6 0 48 66 251 390 98 157 184
291 191 299 14 15 119 10 679 -34 167 -14 716 -52 813 -57 24 -1 45 -5 48 -9
2 -4 -69 -134 -158 -290 -88 -156 -180 -318 -203 -359 -24 -41 -51 -89 -61
-107 -19 -32 -19 -32 1 -47 16 -12 272 -174 435 -276 315 -196 353 -221 347
-226 -4 -4 -497 -125 -710 -174 -53 -12 -100 -27 -103 -32 -3 -5 -10 -185 -15
-401 -5 -215 -12 -394 -16 -398 -5 -4 -303 -100 -663 -212 -360 -113 -673
-211 -695 -219 -38 -12 -52 -10 -325 65 -480 132 -1031 280 -1165 314 -33 9
-64 19 -68 23 -4 4 -12 190 -16 414 -5 224 -13 411 -17 416 -5 5 -67 20 -139
35 -71 15 -215 45 -320 66 -104 22 -218 45 -252 52 -35 6 -63 16 -63 22 0 5
42 38 93 72 50 33 171 115 267 180 96 66 220 150 275 187 55 37 106 74 114 81
11 11 -15 60 -165 302 -285 462 -305 496 -297 503 4 4 139 17 298 29 362 27
1003 80 1030 85 11 2 47 4 80 4 l60 1 34 -52z"/>
</g>
</svg>
