<?xml version="1.0" standalone="no"?>
<!DOCTYPE svg PUBLIC "-//W3C//DTD SVG 20010904//EN"
 "http://www.w3.org/TR/2001/REC-SVG-20010904/DTD/svg10.dtd">
<svg version="1.0" xmlns="http://www.w3.org/2000/svg"
 width="640.000000pt" height="640.000000pt" viewBox="0 0 640.000000 640.000000"
 preserveAspectRatio="xMidYMid meet">

<g transform="translate(0.000000,640.000000) scale(0.100000,-0.100000)"
fill="#000000" stroke="none">
<path d="M3622 4558 c-27 -27 -13 -56 56 -111 80 -65 176 -164 220 -229 49
-72 100 -185 113 -250 6 -32 17 -61 23 -66 6 -5 54 -14 106 -19 179 -21 298
-77 417 -201 62 -64 75 -74 97 -68 38 10 44 48 13 89 -43 56 -100 111 -150
146 -99 68 -259 126 -371 133 -38 3 -38 3 -60 73 -55 171 -170 326 -349 469
-58 46 -93 56 -115 34z"/>
<path d="M3044 4340 c-257 -46 -454 -221 -541 -480 -14 -41 -26 -76 -27 -77
-1 -1 -24 4 -51 13 -82 24 -219 29 -312 10 -254 -51 -426 -205 -489 -436 -24
-88 -24 -281 -1 -370 57 -213 202 -360 412 -416 33 -9 115 -18 182 -21 89 -4
123 -9 127 -19 3 -7 10 -53 17 -100 13 -101 7 -195 -22 -312 -26 -106 -22
-114 103 -175 289 -141 659 -166 1063 -70 121 28 327 96 362 119 34 22 36 52
9 126 -32 83 -63 240 -68 333 l-3 70 90 7 c335 28 559 190 620 449 8 37 15
112 15 179 0 187 -43 304 -148 408 -100 99 -215 140 -417 150 l-130 7 -7 75
c-16 151 -74 284 -165 375 -112 112 -230 156 -433 161 -74 1 -158 -1 -186 -6z
m307 -134 c225 -48 349 -220 349 -484 0 -86 2 -95 25 -118 21 -21 30 -23 67
-17 24 5 95 8 158 8 164 0 250 -27 337 -108 80 -73 113 -166 113 -317 0 -162
-42 -274 -135 -358 -99 -89 -225 -131 -422 -139 -172 -8 -168 -4 -167 -162 1
-106 21 -257 40 -305 8 -22 9 -22 -128 17 -286 83 -641 87 -973 12 -60 -14
-113 -25 -116 -25 -4 0 -5 44 -2 98 7 137 -28 333 -67 372 -16 16 -30 18 -118
13 -140 -8 -246 10 -343 59 -159 79 -231 214 -232 433 -1 160 44 277 142 368
145 136 384 172 590 90 58 -23 67 -25 90 -12 14 8 29 28 33 44 3 17 14 61 22
99 50 217 203 374 418 427 89 21 230 24 319 5z m-90 -2056 c177 -18 409 -73
378 -90 -21 -12 -198 -56 -309 -76 -70 -14 -147 -18 -295 -18 -185 -1 -208 1
-308 27 -109 27 -207 64 -207 77 0 15 251 65 395 79 130 12 229 12 346 1z"/>
<path d="M3021 2874 c-20 -25 -21 -39 -21 -234 0 -195 1 -209 21 -234 25 -31
57 -33 87 -6 21 20 22 27 22 240 0 207 -1 221 -20 240 -28 28 -64 25 -89 -6z"/>
<path d="M3399 2887 c-21 -16 -23 -23 -59 -232 -39 -223 -39 -233 -10 -257 28
-23 52 -23 79 0 18 14 27 50 56 212 19 107 35 209 35 227 0 51 -60 81 -101 50z"/>
<path d="M2664 2857 l-27 -24 26 -204 c15 -112 27 -209 27 -215 0 -6 9 -20 20
-32 26 -28 71 -28 96 -1 18 20 18 25 -5 207 -12 103 -27 205 -31 227 -15 66
-58 83 -106 42z"/>
<path d="M4701 3543 c-24 -16 -26 -40 -9 -80 26 -62 61 -79 93 -47 18 18 15
45 -11 101 -18 37 -45 46 -73 26z"/>
</g>
</svg>
